<?xml version="1.0" encoding="UTF-8" standalone="no"?>
<svg width="16px" height="22px" viewBox="0 0 16 22" version="1.1" xmlns="http://www.w3.org/2000/svg" xmlns:xlink="http://www.w3.org/1999/xlink" xmlns:sketch="http://www.bohemiancoding.com/sketch/ns">
    <!-- Generator: Sketch 3.4.4 (17249) - http://www.bohemiancoding.com/sketch -->
    <title>Rectangle 1</title>
    <desc>Created with Sketch.</desc>
    <defs></defs>
    <g id="Page-1" stroke="none" stroke-width="1" fill="none" fill-rule="evenodd" sketch:type="MSPage">
        <g id="Tablet" sketch:type="MSArtboardGroup" transform="translate(-26.000000, -722.000000)" fill="#FFFFFF">
            <g id="Left-Container" sketch:type="MSLayerGroup">
                <g id="Footer" transform="translate(26.000000, 714.000000)" sketch:type="MSShapeGroup">
                    <g id="Made-in-Kitchener">
                        <path d="M8.5,13.3125409 L8.5,15 L7.5,15 L7.5,12.0274523 L7.5,8.55490451 C7.5,8.55490451 9.53222656,7.30636936 11.3085938,8.55490451 C13.0849609,9.80343967 15,8.55490451 15,8.55490451 L15,13.8049045 C15,13.8049045 12.5893555,13.8049045 11.25,13.0785862 C10.4675425,12.6542677 9.3194596,12.9736155 8.5,13.3125409 Z M1.5,20.875 C1.5,17.9064695 3.91473363,15.5 6.88143797,15.5 L9.11856203,15.5 C12.0906482,15.5 14.5,17.9125098 14.5,20.875 L14.5,26.25 L3.5116082,26.25 L1.5,26.25 L1.5,20.875 Z M8.125,24 C9.71281866,24 11,22.7128187 11,21.125 C11,19.5371813 9.71281866,18.25 8.125,18.25 C6.53718134,18.25 5.25,19.5371813 5.25,21.125 C5.25,22.7128187 6.53718134,24 8.125,24 Z M0,28.5 C0,27.6715729 0.667129755,27 1.50524116,27 L14.4947588,27 C15.3260806,27 16,27.6657972 16,28.5 C16,29.3284271 15.3328702,30 14.4947588,30 L1.50524116,30 C0.673919421,30 0,29.3342028 0,28.5 Z" id="Rectangle-1"></path>
                    </g>
                </g>
            </g>
        </g>
    </g>
</svg>